<svg width="186" height="54" viewBox="0 0 186 54" fill="none" xmlns="http://www.w3.org/2000/svg">
<path d="M184.512 47.5961C184.512 50.4526 182.15 52.7664 179.228 52.7664H6.32171C3.40155 52.7664 1.03125 50.4526 1.03125 47.5961V6.365C1.03125 3.50988 3.40155 1.18799 6.32171 1.18799H179.227C182.15 1.18799 184.51 3.50988 184.51 6.365L184.512 47.5961Z" fill="black"/>
<path d="M178.67 1.25046C181.852 1.25046 184.441 3.77474 184.441 6.8769V47.0777C184.441 50.1799 181.852 52.7041 178.67 52.7041H6.87193C3.69023 52.7041 1.10123 50.1799 1.10123 47.0777V6.8769C1.10123 3.77474 3.69023 1.25046 6.87193 1.25046H178.67ZM178.67 0.176765H6.87193C3.09409 0.176765 0 3.1935 0 6.8769V47.0777C0 50.7611 3.09409 53.7778 6.87193 53.7778H178.67C182.448 53.7778 185.542 50.7611 185.542 47.0777V6.8769C185.542 3.1935 182.448 0.176765 178.67 0.176765Z" fill="#A6A6A6"/>
<path d="M41.4075 26.688C41.3677 22.369 45.0346 20.2679 45.2022 20.1701C43.1255 17.218 39.9067 16.8146 38.7756 16.7825C36.0722 16.5051 33.4499 18.3597 32.0727 18.3597C30.6681 18.3597 28.5474 16.8093 26.2618 16.8548C23.3206 16.8991 20.5691 18.5594 19.06 21.1376C15.9457 26.3945 18.2684 34.1197 21.2522 38.369C22.7448 40.45 24.4889 42.7736 26.7717 42.6919C29.0051 42.6021 29.8393 41.3036 32.5345 41.3036C35.2049 41.3036 35.9883 42.6919 38.3166 42.6396C40.7135 42.6021 42.2226 40.5492 43.6629 38.4494C45.3878 36.0641 46.0805 33.7151 46.108 33.5945C46.0516 33.5757 41.4529 31.8645 41.4075 26.688Z" fill="white"/>
<path d="M37.0095 13.9872C38.2107 12.5225 39.0326 10.5299 38.8045 8.50781C37.0659 8.58285 34.8916 9.68034 33.6395 11.1128C32.5318 12.3751 31.5422 14.4441 31.7978 16.3898C33.7508 16.5319 35.7561 15.429 37.0095 13.9872Z" fill="white"/>
<path d="M67.4143 13.5891C67.4143 15.1663 66.9291 16.3536 65.9602 17.1509C65.0627 17.8866 63.7873 18.2551 62.1353 18.2551C61.3161 18.2551 60.6152 18.2202 60.0283 18.1505V9.53283C60.7939 9.41223 61.6185 9.35059 62.5091 9.35059C64.0828 9.35059 65.2689 9.68425 66.0688 10.3516C66.9649 11.106 67.4143 12.1847 67.4143 13.5891ZM65.8956 13.628C65.8956 12.6055 65.618 11.8216 65.0627 11.2749C64.5075 10.7295 63.6966 10.4561 62.6287 10.4561C62.1751 10.4561 61.7889 10.4856 61.4687 10.5472V17.0986C61.646 17.1254 61.9703 17.1375 62.4417 17.1375C63.544 17.1375 64.3948 16.8387 64.994 16.241C65.5932 15.6434 65.8956 14.7723 65.8956 13.628Z" fill="white"/>
<path d="M75.4666 14.9665C75.4666 15.938 75.1821 16.734 74.6131 17.3585C74.0167 18.0003 73.2264 18.3206 72.2396 18.3206C71.2885 18.3206 70.5312 18.0137 69.9663 17.3973C69.4028 16.7822 69.1211 16.0064 69.1211 15.071C69.1211 14.0928 69.4111 13.2901 69.9938 12.667C70.5766 12.0439 71.36 11.7317 72.3468 11.7317C73.2979 11.7317 74.062 12.0386 74.6406 12.6536C75.1904 13.2513 75.4666 14.0231 75.4666 14.9665ZM73.9727 15.0121C73.9727 14.4292 73.8435 13.9293 73.5865 13.5126C73.2841 13.0087 72.8539 12.7568 72.2946 12.7568C71.7159 12.7568 71.2761 13.0087 70.9738 13.5126C70.7154 13.9293 70.5876 14.4372 70.5876 15.0375C70.5876 15.6204 70.7168 16.1203 70.9738 16.537C71.2858 17.0409 71.7201 17.2928 72.2808 17.2928C72.8306 17.2928 73.2621 17.0369 73.5727 16.5236C73.8394 16.0988 73.9727 15.595 73.9727 15.0121Z" fill="white"/>
<path d="M86.264 11.8604L84.2368 18.1772H82.9174L82.0776 15.4342C81.8646 14.7494 81.6914 14.0687 81.5567 13.3933H81.5306C81.4056 14.0875 81.2324 14.7669 81.0097 15.4342L80.1178 18.1772H78.7832L76.877 11.8604H78.3572L79.0897 14.8634C79.267 15.5736 79.4127 16.2503 79.5295 16.8908H79.5556C79.6628 16.3628 79.8401 15.6901 80.0903 14.8768L81.0097 11.8617H82.1835L83.0644 14.8124C83.2775 15.532 83.4506 16.2248 83.584 16.8922H83.6238C83.7214 16.2422 83.8685 15.5494 84.0636 14.8124L84.8498 11.8617H86.264V11.8604Z" fill="white"/>
<path d="M93.7307 18.1773H92.2904V14.5593C92.2904 13.4444 91.856 12.8869 90.9847 12.8869C90.5573 12.8869 90.2123 13.0397 89.9443 13.3465C89.679 13.6534 89.5443 14.0152 89.5443 14.4293V18.176H88.104V13.6655C88.104 13.1107 88.0861 12.509 88.0518 11.8578H89.3176L89.3849 12.8454H89.4248C89.5924 12.5385 89.8426 12.2852 90.1711 12.0829C90.5614 11.847 90.9984 11.7278 91.4767 11.7278C92.0814 11.7278 92.5845 11.9181 92.9844 12.3C93.4819 12.7676 93.7307 13.4658 93.7307 14.3931V18.1773Z" fill="white"/>
<path d="M97.7026 18.1773H96.2637V8.96191H97.7026V18.1773Z" fill="white"/>
<path d="M106.183 14.9665C106.183 15.938 105.899 16.734 105.33 17.3585C104.733 18.0003 103.942 18.3206 102.956 18.3206C102.004 18.3206 101.247 18.0137 100.683 17.3973C100.12 16.7822 99.8379 16.0064 99.8379 15.071C99.8379 14.0928 100.128 13.2901 100.711 12.667C101.293 12.0439 102.077 11.7317 103.062 11.7317C104.015 11.7317 104.777 12.0386 105.357 12.6536C105.907 13.2513 106.183 14.0231 106.183 14.9665ZM104.688 15.0121C104.688 14.4292 104.559 13.9293 104.302 13.5126C104.001 13.0087 103.569 12.7568 103.011 12.7568C102.431 12.7568 101.992 13.0087 101.691 13.5126C101.432 13.9293 101.304 14.4372 101.304 15.0375C101.304 15.6204 101.434 16.1203 101.691 16.537C102.003 17.0409 102.437 17.2928 102.998 17.2928C103.547 17.2928 103.978 17.0369 104.288 16.5236C104.556 16.0988 104.688 15.595 104.688 15.0121Z" fill="white"/>
<path d="M113.154 18.1772H111.861L111.753 17.4496H111.713C111.271 18.0298 110.64 18.3206 109.821 18.3206C109.209 18.3206 108.715 18.129 108.342 17.7484C108.004 17.4027 107.835 16.9725 107.835 16.462C107.835 15.6901 108.165 15.1019 108.829 14.6945C109.491 14.2871 110.423 14.0875 111.623 14.0968V13.9789C111.623 13.1468 111.175 12.7313 110.277 12.7313C109.638 12.7313 109.075 12.8881 108.588 13.199L108.295 12.2771C108.897 11.9139 109.641 11.7317 110.518 11.7317C112.211 11.7317 113.06 12.6027 113.06 14.3447V16.671C113.06 17.3022 113.092 17.8047 113.154 18.1772ZM111.658 16.0064V15.0322C110.07 15.0054 109.275 15.4302 109.275 16.3052C109.275 16.6348 109.366 16.8814 109.552 17.0462C109.737 17.2111 109.974 17.2928 110.255 17.2928C110.571 17.2928 110.867 17.195 111.136 17.0007C111.407 16.805 111.573 16.5571 111.635 16.2529C111.65 16.1846 111.658 16.1015 111.658 16.0064Z" fill="white"/>
<path d="M121.338 18.1773H120.06L119.993 17.1629H119.953C119.544 17.9347 118.849 18.3207 117.872 18.3207C117.091 18.3207 116.441 18.0218 115.926 17.4242C115.41 16.8265 115.153 16.0507 115.153 15.0979C115.153 14.0755 115.432 13.2473 115.993 12.6148C116.536 12.0252 117.201 11.7304 117.993 11.7304C118.863 11.7304 119.472 12.0158 119.818 12.588H119.845V8.96191H121.287V16.4754C121.287 17.0905 121.304 17.6573 121.338 18.1773ZM119.845 15.5133V14.46C119.845 14.2778 119.832 14.1304 119.806 14.0178C119.725 13.6801 119.55 13.3961 119.285 13.1669C119.017 12.9378 118.694 12.8225 118.321 12.8225C117.784 12.8225 117.363 13.0302 117.054 13.447C116.748 13.8637 116.592 14.3957 116.592 15.0456C116.592 15.6701 116.739 16.1766 117.035 16.5666C117.347 16.982 117.767 17.1897 118.294 17.1897C118.767 17.1897 119.145 17.0168 119.432 16.6697C119.709 16.3495 119.845 15.9636 119.845 15.5133Z" fill="white"/>
<path d="M133.657 14.9665C133.657 15.938 133.373 16.734 132.804 17.3585C132.207 18.0003 131.418 18.3206 130.43 18.3206C129.48 18.3206 128.723 18.0137 128.157 17.3973C127.593 16.7822 127.312 16.0064 127.312 15.071C127.312 14.0928 127.602 13.2901 128.184 12.667C128.767 12.0439 129.55 11.7317 130.539 11.7317C131.488 11.7317 132.254 12.0386 132.831 12.6536C133.381 13.2513 133.657 14.0231 133.657 14.9665ZM132.164 15.0121C132.164 14.4292 132.035 13.9293 131.778 13.5126C131.475 13.0087 131.046 12.7568 130.485 12.7568C129.908 12.7568 129.468 13.0087 129.164 13.5126C128.906 13.9293 128.778 14.4372 128.778 15.0375C128.778 15.6204 128.907 16.1203 129.164 16.537C129.476 17.0409 129.91 17.2928 130.471 17.2928C131.021 17.2928 131.454 17.0369 131.765 16.5236C132.03 16.0988 132.164 15.595 132.164 15.0121Z" fill="white"/>
<path d="M141.401 18.1773H139.962V14.5593C139.962 13.4444 139.528 12.8869 138.655 12.8869C138.228 12.8869 137.883 13.0397 137.616 13.3465C137.35 13.6534 137.216 14.0152 137.216 14.4293V18.176H135.774V13.6655C135.774 13.1107 135.758 12.509 135.724 11.8578H136.988L137.055 12.8454H137.095C137.264 12.5385 137.514 12.2852 137.842 12.0829C138.233 11.847 138.669 11.7278 139.149 11.7278C139.752 11.7278 140.255 11.9181 140.655 12.3C141.154 12.7676 141.401 13.4658 141.401 14.3931V18.1773Z" fill="white"/>
<path d="M151.095 12.9122H149.509V15.9809C149.509 16.7608 149.791 17.1507 150.349 17.1507C150.607 17.1507 150.822 17.1293 150.991 17.0851L151.028 18.1504C150.743 18.2549 150.37 18.3072 149.909 18.3072C149.34 18.3072 148.898 18.1383 148.577 17.8006C148.256 17.463 148.096 16.8948 148.096 16.0975V12.9122H147.149V11.8603H148.096V10.7025L149.508 10.2871V11.859H151.094V12.9122H151.095Z" fill="white"/>
<path d="M158.721 18.1773H157.279V14.586C157.279 13.4537 156.844 12.8869 155.974 12.8869C155.307 12.8869 154.85 13.2152 154.6 13.8718C154.557 14.0098 154.533 14.1786 154.533 14.377V18.1759H153.094V8.96191H154.533V12.7689H154.56C155.014 12.0761 155.664 11.7304 156.506 11.7304C157.103 11.7304 157.596 11.9207 157.988 12.3026C158.476 12.7783 158.721 13.4858 158.721 14.4212V18.1773Z" fill="white"/>
<path d="M166.586 14.72C166.586 14.972 166.567 15.1837 166.533 15.3566H162.213C162.232 15.981 162.438 16.4567 162.838 16.7864C163.204 17.0812 163.675 17.2286 164.253 17.2286C164.892 17.2286 165.474 17.1294 165.999 16.9297L166.225 17.9053C165.61 18.1653 164.887 18.2952 164.05 18.2952C163.047 18.2952 162.257 18.0071 161.685 17.4309C161.111 16.8547 160.826 16.0815 160.826 15.1113C160.826 14.1586 161.091 13.3653 161.626 12.7328C162.184 12.0574 162.939 11.7197 163.891 11.7197C164.823 11.7197 165.531 12.0574 166.009 12.7328C166.395 13.2688 166.586 13.9321 166.586 14.72ZM165.212 14.3569C165.223 13.9401 165.128 13.581 164.933 13.2782C164.683 12.8882 164.302 12.6926 163.787 12.6926C163.317 12.6926 162.933 12.8829 162.64 13.2648C162.401 13.569 162.26 13.9321 162.213 14.3569H165.212Z" fill="white"/>
<path d="M73.7283 42.3929H70.6071L68.8974 37.1547H62.9545L61.3259 42.3929H58.2871L64.175 24.5598H67.8116L73.7283 42.3929ZM68.382 34.9571L66.8358 30.3005C66.6722 29.8248 66.3657 28.7045 65.9136 26.941H65.8586C65.6786 27.6995 65.3886 28.8198 64.99 30.3005L63.4713 34.9571H68.382Z" fill="white"/>
<path d="M88.8696 35.8053C88.8696 37.9923 88.2635 39.7209 87.0513 40.9899C85.9656 42.1195 84.6173 42.6837 83.0079 42.6837C81.2707 42.6837 80.0227 42.0753 79.2627 40.8586H79.2077V47.6324H76.2775V33.7671C76.2775 32.3923 76.2404 30.9812 76.1689 29.534H78.7459L78.9095 31.5722H78.9644C79.9416 30.0365 81.4246 29.27 83.4147 29.27C84.9705 29.27 86.2693 29.869 87.3083 31.0683C88.3501 32.269 88.8696 33.8475 88.8696 35.8053ZM85.8845 35.9099C85.8845 34.6583 85.5959 33.6264 85.0159 32.8144C84.3823 31.9675 83.5315 31.544 82.465 31.544C81.7421 31.544 81.0851 31.7799 80.4983 32.2449C79.91 32.7139 79.5252 33.3263 79.3451 34.0847C79.2544 34.4385 79.2091 34.7279 79.2091 34.9558V37.0998C79.2091 38.0351 79.5032 38.8244 80.0914 39.469C80.6797 40.1135 81.4438 40.4351 82.3839 40.4351C83.4875 40.4351 84.3465 40.0197 84.9609 39.1916C85.5766 38.3621 85.8845 37.2686 85.8845 35.9099Z" fill="white"/>
<path d="M104.039 35.8053C104.039 37.9923 103.433 39.7209 102.219 40.9899C101.135 42.1195 99.7868 42.6837 98.1774 42.6837C96.4402 42.6837 95.1922 42.0753 94.4336 40.8586H94.3786V47.6324H91.4484V33.7671C91.4484 32.3923 91.4113 30.9812 91.3398 29.534H93.9168L94.0804 31.5722H94.1353C95.1112 30.0365 96.5941 29.27 98.5856 29.27C100.14 29.27 101.439 29.869 102.481 31.0683C103.518 32.269 104.039 33.8475 104.039 35.8053ZM101.054 35.9099C101.054 34.6583 100.764 33.6264 100.184 32.8144C99.5504 31.9675 98.7024 31.544 97.6345 31.544C96.9102 31.544 96.2547 31.7799 95.6664 32.2449C95.0782 32.7139 94.6947 33.3263 94.5147 34.0847C94.4253 34.4385 94.3786 34.7279 94.3786 34.9558V37.0998C94.3786 38.0351 94.6727 38.8244 95.2582 39.469C95.8465 40.1122 96.6106 40.4351 97.5535 40.4351C98.6571 40.4351 99.5161 40.0197 100.13 39.1916C100.746 38.3621 101.054 37.2686 101.054 35.9099Z" fill="white"/>
<path d="M120.999 37.392C120.999 38.9089 120.459 40.1431 119.375 41.0958C118.183 42.137 116.524 42.657 114.393 42.657C112.424 42.657 110.847 42.2871 109.652 41.5461L110.331 39.1648C111.618 39.9233 113.029 40.3039 114.567 40.3039C115.671 40.3039 116.53 40.06 117.147 39.5749C117.761 39.0898 118.068 38.4385 118.068 37.6265C118.068 36.9029 117.815 36.2932 117.308 35.7987C116.803 35.3042 115.961 34.8446 114.784 34.4198C111.582 33.2553 109.982 31.5495 109.982 29.3063C109.982 27.8403 110.543 26.6383 111.666 25.7029C112.785 24.7663 114.277 24.2986 116.144 24.2986C117.808 24.2986 119.191 24.5813 120.294 25.1455L119.562 27.4744C118.531 26.9277 117.365 26.6544 116.061 26.6544C115.03 26.6544 114.225 26.9023 113.648 27.3954C113.16 27.8363 112.915 28.3736 112.915 29.0101C112.915 29.715 113.194 30.2979 113.755 30.7562C114.243 31.1796 115.129 31.6379 116.416 32.1324C117.989 32.7501 119.145 33.4724 119.889 34.3005C120.63 35.126 120.999 36.1592 120.999 37.392Z" fill="white"/>
<path d="M130.687 31.6781H127.457V37.9213C127.457 39.5092 128.026 40.3025 129.167 40.3025C129.691 40.3025 130.125 40.2583 130.469 40.1699L130.55 42.3394C129.973 42.5498 129.212 42.6556 128.271 42.6556C127.114 42.6556 126.209 42.3112 125.557 41.6238C124.907 40.935 124.579 39.7799 124.579 38.1572V31.6754H122.655V29.5314H124.579V27.177L127.457 26.3301V29.5314H130.687V31.6781Z" fill="white"/>
<path d="M145.26 35.8577C145.26 37.8343 144.68 39.457 143.522 40.726C142.309 42.0326 140.698 42.6838 138.69 42.6838C136.755 42.6838 135.214 42.058 134.065 40.8064C132.916 39.5548 132.342 37.975 132.342 36.0708C132.342 34.0782 132.933 32.446 134.119 31.177C135.302 29.9067 136.899 29.2715 138.907 29.2715C140.842 29.2715 142.4 29.8973 143.575 31.1502C144.699 32.3656 145.26 33.9348 145.26 35.8577ZM142.219 35.9502C142.219 34.7643 141.96 33.7472 141.433 32.8989C140.819 31.8725 139.941 31.3606 138.803 31.3606C137.625 31.3606 136.73 31.8738 136.116 32.8989C135.589 33.7485 135.33 34.7817 135.33 36.0038C135.33 37.1897 135.589 38.2068 136.116 39.0537C136.749 40.0801 137.635 40.592 138.777 40.592C139.895 40.592 140.774 40.0694 141.407 39.0269C141.947 38.1626 142.219 37.1348 142.219 35.9502Z" fill="white"/>
<path d="M154.784 32.0466C154.494 31.9943 154.184 31.9675 153.86 31.9675C152.829 31.9675 152.032 32.3467 151.471 33.1065C150.983 33.7765 150.739 34.6234 150.739 35.6459V42.3929H147.81L147.837 33.5836C147.837 32.1015 147.8 30.7521 147.728 29.5353H150.28L150.387 31.9956H150.468C150.777 31.1501 151.265 30.4693 151.933 29.9588C152.586 29.4992 153.291 29.27 154.051 29.27C154.322 29.27 154.567 29.2888 154.784 29.3223V32.0466Z" fill="white"/>
<path d="M167.889 35.355C167.889 35.8669 167.854 36.2984 167.782 36.6508H158.991C159.025 37.9212 159.45 38.8927 160.266 39.5627C161.007 40.1617 161.965 40.4619 163.142 40.4619C164.443 40.4619 165.631 40.2595 166.699 39.8535L167.158 41.8367C165.91 42.3674 164.436 42.6314 162.736 42.6314C160.691 42.6314 159.086 42.0444 157.918 40.8719C156.752 39.6994 156.168 38.1249 156.168 36.1497C156.168 34.2106 156.711 32.5959 157.798 31.3082C158.936 29.9333 160.474 29.2458 162.409 29.2458C164.31 29.2458 165.749 29.9333 166.726 31.3082C167.5 32.4003 167.889 33.751 167.889 35.355ZM165.095 34.614C165.114 33.7671 164.923 33.0354 164.526 32.4177C164.018 31.6231 163.239 31.2264 162.191 31.2264C161.233 31.2264 160.453 31.6137 159.858 32.3909C159.37 33.0086 159.08 33.7497 158.991 34.6127H165.095V34.614Z" fill="white"/>
</svg>
