<svg width="47" height="21" viewBox="0 0 47 21" fill="none" xmlns="http://www.w3.org/2000/svg">
<g clip-path="url(#clip0_99_466)">
<path d="M8.614 3.31574C8.06417 3.96638 7.18424 4.47974 6.30441 4.40634C6.19444 3.5266 6.62515 2.59169 7.12926 2.01427C7.6791 1.3453 8.64149 0.868687 9.42052 0.832031C9.51216 1.74852 9.15468 2.64668 8.614 3.31574ZM9.41145 4.58055C8.13748 4.50723 7.04688 5.3045 6.44196 5.3045C5.82798 5.3045 4.90224 4.6172 3.89411 4.63553C2.58357 4.65386 1.36458 5.39614 0.695523 6.57847C-0.679253 8.94304 0.338129 12.4441 1.66699 14.3687C2.31773 15.3219 3.09675 16.3667 4.12321 16.33C5.09477 16.2934 5.47966 15.6977 6.65283 15.6977C7.83507 15.6977 8.17422 16.33 9.20068 16.3117C10.2638 16.2934 10.9328 15.3586 11.5836 14.4054C12.3259 13.324 12.6284 12.2699 12.6467 12.2149C12.6284 12.1966 10.5938 11.4177 10.5755 9.07134C10.5571 7.11007 12.1793 6.17526 12.2526 6.12027C11.3361 4.76382 9.90639 4.6172 9.41145 4.58055ZM16.771 1.92263V16.211H18.9889V11.326H22.0592C24.8636 11.326 26.8341 9.40143 26.8341 6.61522C26.8341 3.8291 24.9003 1.92272 22.1325 1.92272L16.771 1.92263ZM18.9889 3.79235H21.5459C23.4706 3.79235 24.5704 4.81881 24.5704 6.62429C24.5704 8.42977 23.4706 9.46548 21.5367 9.46548H18.9889V3.79235ZM30.885 16.3209C32.2781 16.3209 33.5703 15.6152 34.1569 14.497H34.2027V16.2109H36.2557V9.09883C36.2557 7.03676 34.606 5.7078 32.0672 5.7078C29.7118 5.7078 27.9705 7.05509 27.9063 8.90639H29.9043C30.0693 8.02656 30.8849 7.44914 32.0031 7.44914C33.3595 7.44914 34.1202 8.08154 34.1202 9.24555V10.0336L31.3523 10.1986C28.777 10.3544 27.384 11.4084 27.384 13.2415C27.384 15.0928 28.8228 16.3209 30.885 16.3209ZM31.4806 14.6253C30.2985 14.6253 29.5469 14.0572 29.5469 13.1864C29.5469 12.2883 30.2709 11.7659 31.6548 11.6834L34.1202 11.5276V12.3341C34.1202 13.6722 32.9838 14.6253 31.4807 14.6253M38.9961 20.0969C41.159 20.0969 42.1763 19.2721 43.0653 16.77L46.9604 5.84526H44.7058L42.0938 14.2862H42.048L39.4359 5.84526H37.1172L40.8748 16.2475L40.6732 16.8799C40.3341 17.9522 39.7842 18.3647 38.8035 18.3647C38.6294 18.3647 38.2904 18.3464 38.1528 18.328V20.0419C38.2811 20.0785 38.8309 20.0969 38.996 20.0969" fill="white"/>
</g>
<defs>
<clipPath id="clip0_99_466">
<rect width="46.9194" height="19.3359" fill="white" transform="translate(0.0400391 0.832031)"/>
</clipPath>
</defs>
</svg>
