<svg width="20" height="24" viewBox="0 0 20 24" fill="none" xmlns="http://www.w3.org/2000/svg">
<path d="M20 16.7396V1.42706C20 0.820943 19.5223 0.333313 18.9286 0.333313H4.28571C1.91964 0.333313 0 2.29295 0 4.70831V19.2916C0 21.707 1.91964 23.6666 4.28571 23.6666H18.9286C19.5223 23.6666 20 23.179 20 22.5729V21.8437C20 21.5019 19.8438 21.192 19.6027 20.9915C19.4152 20.2897 19.4152 18.289 19.6027 17.5872C19.8438 17.3913 20 17.0814 20 16.7396ZM5.71429 6.44008C5.71429 6.28969 5.83482 6.16665 5.98214 6.16665H15.4464C15.5938 6.16665 15.7143 6.28969 15.7143 6.44008V7.35154C15.7143 7.50193 15.5938 7.62498 15.4464 7.62498H5.98214C5.83482 7.62498 5.71429 7.50193 5.71429 7.35154V6.44008ZM5.71429 9.35675C5.71429 9.20636 5.83482 9.08331 5.98214 9.08331H15.4464C15.5938 9.08331 15.7143 9.20636 15.7143 9.35675V10.2682C15.7143 10.4186 15.5938 10.5416 15.4464 10.5416H5.98214C5.83482 10.5416 5.71429 10.4186 5.71429 10.2682V9.35675ZM17.0268 20.75H4.28571C3.49554 20.75 2.85714 20.0983 2.85714 19.2916C2.85714 18.4896 3.5 17.8333 4.28571 17.8333H17.0268C16.942 18.6126 16.942 19.9707 17.0268 20.75Z" fill="#1A101A"/>
</svg>
