<svg width="25" height="26" viewBox="0 0 25 26" fill="none" xmlns="http://www.w3.org/2000/svg">
<path d="M12.4467 17.3335C12.2076 17.334 11.9759 17.2458 11.7919 17.0843L5.65283 11.6676C5.44388 11.4838 5.31248 11.2195 5.28753 10.9331C5.26259 10.6466 5.34614 10.3614 5.51981 10.1401C5.69349 9.9189 5.94305 9.77977 6.2136 9.75336C6.48416 9.72695 6.75354 9.81542 6.96249 9.9993L12.4467 14.8526L17.9309 10.1726C18.0356 10.0826 18.156 10.0154 18.2852 9.9749C18.4145 9.93434 18.5501 9.92124 18.6841 9.93634C18.8182 9.95144 18.9481 9.99445 19.0664 10.0629C19.1848 10.1313 19.2891 10.2238 19.3736 10.3351C19.4673 10.4465 19.5382 10.5772 19.582 10.719C19.6258 10.8608 19.6415 11.0106 19.628 11.1591C19.6146 11.3076 19.5723 11.4515 19.5039 11.5819C19.4354 11.7123 19.3423 11.8263 19.2303 11.9168L13.0913 17.1493C12.9019 17.2853 12.675 17.3501 12.4467 17.3335Z" fill="#F1EAEA"/>
</svg>
