<svg width="186" height="54" viewBox="0 0 186 54" fill="none" xmlns="http://www.w3.org/2000/svg">
<path d="M179.128 53.7778H7.32994C3.5521 53.7778 0.458008 50.7611 0.458008 47.0777V6.8769C0.458008 3.1935 3.5521 0.176767 7.32994 0.176767H179.128C182.906 0.176767 186 3.1935 186 6.8769V47.0777C186 50.7611 182.906 53.7778 179.128 53.7778Z" fill="black"/>
<path d="M179.128 1.25046C182.31 1.25046 184.899 3.77474 184.899 6.8769V47.0777C184.899 50.1799 182.31 52.7041 179.128 52.7041H7.32994C4.14824 52.7041 1.55923 50.1799 1.55923 47.0777V6.8769C1.55923 3.77474 4.14824 1.25046 7.32994 1.25046H179.128ZM179.128 0.176767H7.32994C3.5521 0.176767 0.458008 3.1935 0.458008 6.8769V47.0777C0.458008 50.7611 3.5521 53.7778 7.32994 53.7778H179.128C182.906 53.7778 186 50.7611 186 47.0777V6.8769C186 3.1935 182.906 0.176767 179.128 0.176767Z" fill="#A6A6A6"/>
<path d="M14.7995 10.2787C14.3958 10.6908 14.1621 11.3323 14.1621 12.1631V41.7978C14.1621 42.6287 14.3958 43.2702 14.7995 43.6823L14.8991 43.7727L31.9312 27.1731V26.7812L14.8991 10.1816L14.7995 10.2787Z" fill="url(#paint0_linear_102_772)"/>
<path d="M37.6027 32.7092L31.9316 27.1732V26.7813L37.6096 21.2453L37.7367 21.3173L44.4609 25.0476C46.3799 26.1062 46.3799 27.8483 44.4609 28.9136L37.7367 32.6372L37.6027 32.7092Z" fill="url(#paint1_linear_102_772)"/>
<path d="M37.7366 32.6371L31.9315 26.9772L14.7998 43.6823C15.4372 44.3356 16.4766 44.4143 17.6585 43.761L37.7366 32.6371Z" fill="url(#paint2_linear_102_772)"/>
<path d="M37.7366 21.3174L17.6585 10.1935C16.4766 9.5469 15.4372 9.62563 14.7998 10.2789L31.9315 26.9773L37.7366 21.3174Z" fill="url(#paint3_linear_102_772)"/>
<path d="M65.6286 13.9038C65.6286 15.0228 65.285 15.9189 64.6081 16.5872C63.8299 17.3795 62.8163 17.7782 61.5742 17.7782C60.3871 17.7782 59.3734 17.3728 58.5419 16.5738C57.7087 15.7631 57.293 14.7682 57.293 13.5772C57.293 12.3863 57.7087 11.3913 58.5419 10.5873C59.3734 9.78158 60.3871 9.37622 61.5742 9.37622C62.1652 9.37622 62.7287 9.49515 63.2664 9.71625C63.8024 9.93903 64.2388 10.2405 64.5549 10.6124L63.8368 11.3193C63.2853 10.6844 62.5345 10.3712 61.5742 10.3712C60.7083 10.3712 59.9576 10.666 59.3202 11.2606C58.6897 11.8569 58.3736 12.6291 58.3736 13.5772C58.3736 14.5253 58.6897 15.3042 59.3202 15.9005C59.9576 16.4884 60.7083 16.7899 61.5742 16.7899C62.4933 16.7899 63.2664 16.4884 63.8763 15.8938C64.2783 15.5001 64.5068 14.9574 64.5669 14.264H61.5742V13.2958H65.5668C65.6149 13.5052 65.6286 13.7079 65.6286 13.9038Z" fill="white" stroke="white" stroke-width="0.0549755" stroke-miterlimit="10"/>
<path d="M71.9625 10.5469H68.2121V13.0929H71.5931V14.0611H68.2121V16.6072H71.9625V17.5938H67.1504V9.5603H71.9625V10.5469Z" fill="white" stroke="white" stroke-width="0.0549755" stroke-miterlimit="10"/>
<path d="M76.4334 17.5938H75.3717V10.5469H73.0713V9.5603H78.7355V10.5469H76.4334V17.5938Z" fill="white" stroke="white" stroke-width="0.0549755" stroke-miterlimit="10"/>
<path d="M82.834 17.5938V9.5603H83.894V17.5938H82.834Z" fill="white" stroke="white" stroke-width="0.0549755" stroke-miterlimit="10"/>
<path d="M88.5925 17.5938H87.5394V10.5469H85.2305V9.5603H90.9015V10.5469H88.5925V17.5938Z" fill="white" stroke="white" stroke-width="0.0549755" stroke-miterlimit="10"/>
<path d="M101.625 16.5604C100.813 17.3728 99.8058 17.7782 98.605 17.7782C97.3972 17.7782 96.3905 17.3728 95.5779 16.5604C94.767 15.7497 94.3633 14.7548 94.3633 13.5772C94.3633 12.3997 94.767 11.4047 95.5779 10.594C96.3905 9.78158 97.3972 9.37622 98.605 9.37622C99.799 9.37622 100.806 9.78158 101.618 10.6007C102.436 11.4181 102.84 12.4064 102.84 13.5772C102.84 14.7548 102.436 15.7497 101.625 16.5604ZM96.363 15.8871C96.9746 16.4884 97.7185 16.7899 98.605 16.7899C99.4846 16.7899 100.235 16.4884 100.84 15.8871C101.45 15.2857 101.759 14.5135 101.759 13.5772C101.759 12.6409 101.45 11.8687 100.84 11.2673C100.235 10.666 99.4846 10.3645 98.605 10.3645C97.7185 10.3645 96.9746 10.666 96.363 11.2673C95.7531 11.8687 95.4439 12.6409 95.4439 13.5772C95.4439 14.5135 95.7531 15.2857 96.363 15.8871Z" fill="white" stroke="white" stroke-width="0.0549755" stroke-miterlimit="10"/>
<path d="M104.329 17.5938V9.5603H105.618L109.624 15.8082H109.67L109.624 14.2638V9.5603H110.684V17.5938H109.578L105.382 11.0377H105.336L105.382 12.5888V17.5938H104.329Z" fill="white" stroke="white" stroke-width="0.0549755" stroke-miterlimit="10"/>
<path d="M94.1013 29.3257C90.8732 29.3257 88.2361 31.721 88.2361 35.0259C88.2361 38.3039 90.8732 40.7243 94.1013 40.7243C97.3363 40.7243 99.9734 38.3039 99.9734 35.0259C99.9734 31.721 97.3363 29.3257 94.1013 29.3257ZM94.1013 38.4798C92.3301 38.4798 90.8062 37.0543 90.8062 35.0259C90.8062 32.9706 92.3301 31.5703 94.1013 31.5703C95.8725 31.5703 97.4033 32.9706 97.4033 35.0259C97.4033 37.0543 95.8725 38.4798 94.1013 38.4798ZM81.304 29.3257C78.0691 29.3257 75.4388 31.721 75.4388 35.0259C75.4388 38.3039 78.0691 40.7243 81.304 40.7243C84.5373 40.7243 87.1692 38.3039 87.1692 35.0259C87.1692 31.721 84.5373 29.3257 81.304 29.3257ZM81.304 38.4798C79.5311 38.4798 78.0021 37.0543 78.0021 35.0259C78.0021 32.9706 79.5311 31.5703 81.304 31.5703C83.0753 31.5703 84.5991 32.9706 84.5991 35.0259C84.5991 37.0543 83.0753 38.4798 81.304 38.4798ZM66.0758 31.0728V33.4949H72.008C71.8345 34.8483 71.3707 35.8433 70.6594 36.5367C69.7936 37.3743 68.4449 38.3039 66.0758 38.3039C62.4251 38.3039 59.5664 35.4312 59.5664 31.8718C59.5664 28.3123 62.4251 25.4397 66.0758 25.4397C68.0498 25.4397 69.486 26.1917 70.546 27.1666L72.2967 25.4598C70.814 24.0795 68.8418 23.0192 66.0758 23.0192C61.0696 23.0192 56.8623 26.9907 56.8623 31.8718C56.8623 36.7528 61.0696 40.7243 66.0758 40.7243C68.7817 40.7243 70.814 39.86 72.4118 38.2386C74.049 36.6423 74.5592 34.3977 74.5592 32.5853C74.5592 32.0225 74.5111 31.5049 74.4252 31.0728H66.0758ZM128.346 32.9505C127.863 31.6758 126.374 29.3257 123.34 29.3257C120.333 29.3257 117.83 31.6356 117.83 35.0259C117.83 38.2185 120.307 40.7243 123.628 40.7243C126.313 40.7243 127.863 39.128 128.5 38.1984L126.508 36.9036C125.843 37.8516 124.937 38.4798 123.628 38.4798C122.328 38.4798 121.395 37.8985 120.797 36.7528L128.616 33.5987L128.346 32.9505ZM120.374 34.8483C120.307 32.6507 122.125 31.525 123.427 31.525C124.448 31.525 125.314 32.0225 125.602 32.7344L120.374 34.8483ZM114.02 40.3776H116.59V23.6273H114.02V40.3776ZM109.811 30.5954H109.725C109.147 29.9287 108.046 29.3257 106.651 29.3257C103.724 29.3257 101.047 31.8316 101.047 35.0443C101.047 38.2386 103.724 40.7243 106.651 40.7243C108.046 40.7243 109.147 40.1163 109.725 39.4295H109.811V40.2469C109.811 42.4262 108.617 43.597 106.691 43.597C105.12 43.597 104.146 42.4915 103.744 41.5618L101.509 42.4714C102.153 43.9823 103.859 45.8416 106.691 45.8416C109.704 45.8416 112.247 44.1129 112.247 39.9069V29.6725H109.811V30.5954ZM106.871 38.4798C105.1 38.4798 103.617 37.0342 103.617 35.0443C103.617 33.0359 105.1 31.5703 106.871 31.5703C108.617 31.5703 109.993 33.0359 109.993 35.0443C109.993 37.0342 108.617 38.4798 106.871 38.4798ZM140.379 23.6273H134.232V40.3776H136.795V34.0309H140.379C143.225 34.0309 146.017 32.0225 146.017 28.8282C146.017 25.6356 143.218 23.6273 140.379 23.6273ZM140.446 31.7009H136.795V25.9572H140.446C142.359 25.9572 143.452 27.5066 143.452 28.8282C143.452 30.1247 142.359 31.7009 140.446 31.7009ZM156.291 29.2939C154.439 29.2939 152.513 30.0912 151.721 31.8584L153.995 32.788C154.485 31.8584 155.385 31.5569 156.337 31.5569C157.667 31.5569 159.015 32.3358 159.036 33.711V33.8868C158.572 33.6255 157.579 33.2386 156.358 33.2386C153.908 33.2386 151.411 34.5535 151.411 37.0074C151.411 39.252 153.418 40.6975 155.674 40.6975C157.399 40.6975 158.35 39.9387 158.948 39.056H159.036V40.3508H161.511V33.9254C161.511 30.9555 159.237 29.2939 156.291 29.2939ZM155.981 38.4731C155.143 38.4731 153.975 38.0677 153.975 37.0543C153.975 35.7579 155.432 35.2604 156.693 35.2604C157.821 35.2604 158.35 35.5032 159.036 35.8232C158.835 37.3743 157.466 38.4731 155.981 38.4731ZM170.531 29.6607L167.585 36.922H167.497L164.451 29.6607H161.687L166.263 39.8081L163.652 45.4546H166.33L173.383 29.6607H170.531ZM147.426 40.3776H149.996V23.6273H147.426V40.3776Z" fill="white"/>
<defs>
<linearGradient id="paint0_linear_102_772" x1="30.419" y1="42.1064" x2="7.9373" y2="19.0484" gradientUnits="userSpaceOnUse">
<stop stop-color="#00A0FF"/>
<stop offset="0.0066" stop-color="#00A1FF"/>
<stop offset="0.2601" stop-color="#00BEFF"/>
<stop offset="0.5122" stop-color="#00D2FF"/>
<stop offset="0.7604" stop-color="#00DFFF"/>
<stop offset="1" stop-color="#00E3FF"/>
</linearGradient>
<linearGradient id="paint1_linear_102_772" x1="46.9597" y1="26.9754" x2="13.7038" y2="26.9754" gradientUnits="userSpaceOnUse">
<stop stop-color="#FFE000"/>
<stop offset="0.4087" stop-color="#FFBD00"/>
<stop offset="0.7754" stop-color="#FFA500"/>
<stop offset="1" stop-color="#FF9C00"/>
</linearGradient>
<linearGradient id="paint2_linear_102_772" x1="34.58" y1="23.9004" x2="4.09302" y2="-7.36832" gradientUnits="userSpaceOnUse">
<stop stop-color="#FF3A44"/>
<stop offset="1" stop-color="#C31162"/>
</linearGradient>
<linearGradient id="paint3_linear_102_772" x1="10.4874" y1="53.5417" x2="24.1012" y2="39.579" gradientUnits="userSpaceOnUse">
<stop stop-color="#32A071"/>
<stop offset="0.0685" stop-color="#2DA771"/>
<stop offset="0.4762" stop-color="#15CF74"/>
<stop offset="0.8009" stop-color="#06E775"/>
<stop offset="1" stop-color="#00F076"/>
</linearGradient>
</defs>
</svg>
