<svg width="90" height="90" viewBox="0 0 90 90" fill="none" xmlns="http://www.w3.org/2000/svg">
<path fill-rule="evenodd" clip-rule="evenodd" d="M45 0C20.1465 0 0 20.1465 0 45C0 69.8535 20.1465 90 45 90C69.8535 90 90 69.8535 90 45C90 20.1465 69.8535 0 45 0ZM29.25 33.75C29.25 31.6817 29.6574 29.6336 30.4489 27.7227C31.2404 25.8119 32.4005 24.0756 33.8631 22.6131C35.3256 21.1505 37.0619 19.9904 38.9727 19.1989C40.8836 18.4074 42.9317 18 45 18C47.0683 18 49.1164 18.4074 51.0273 19.1989C52.9381 19.9904 54.6744 21.1505 56.1369 22.6131C57.5995 24.0756 58.7596 25.8119 59.5511 27.7227C60.3426 29.6336 60.75 31.6817 60.75 33.75C60.75 37.9272 59.0906 41.9332 56.1369 44.8869C53.1832 47.8406 49.1772 49.5 45 49.5C40.8228 49.5 36.8168 47.8406 33.8631 44.8869C30.9094 41.9332 29.25 37.9272 29.25 33.75ZM73.161 67.428C69.7925 71.6653 65.5101 75.0868 60.6338 77.4369C55.7574 79.787 50.4131 81.0051 45 81C39.5869 81.0051 34.2426 79.787 29.3662 77.4369C24.4899 75.0868 20.2075 71.6653 16.839 67.428C24.1335 62.1945 34.0875 58.5 45 58.5C55.9125 58.5 65.8665 62.1945 73.161 67.428Z" fill="#171717"/>
</svg>
