<svg width="46" height="45" viewBox="0 0 46 45" fill="none" xmlns="http://www.w3.org/2000/svg">
<path d="M25.2301 3.74365C27.3359 3.74927 28.4047 3.7605 29.3275 3.7867L29.6906 3.79981C30.1099 3.81478 30.5236 3.8335 31.0234 3.85596C33.0149 3.94955 34.3739 4.26401 35.5662 4.72634C36.8016 5.20178 37.8423 5.84568 38.883 6.88452C39.8348 7.82023 40.5713 8.95209 41.0412 10.2013C41.5035 11.3937 41.818 12.7526 41.9116 14.7461C41.934 15.244 41.9528 15.6576 41.9677 16.0788L41.979 16.4419C42.007 17.3628 42.0183 18.4316 42.022 20.5374L42.0239 21.9338V24.3858C42.0285 25.7511 42.0141 27.1164 41.9808 28.4813L41.9696 28.8444C41.9546 29.2656 41.9359 29.6792 41.9135 30.1771C41.8199 32.1706 41.5017 33.5277 41.0412 34.7219C40.5726 35.9718 39.836 37.1039 38.883 38.0387C37.9471 38.9901 36.8153 39.7266 35.5662 40.1969C34.3739 40.6592 33.0149 40.9737 31.0234 41.0672C30.5792 41.0882 30.135 41.1069 29.6906 41.1234L29.3275 41.1346C28.4047 41.1608 27.3359 41.1739 25.2301 41.1777L23.8338 41.1796H21.3836C20.0177 41.1843 18.6518 41.1699 17.2863 41.1365L16.9231 41.1253C16.4788 41.1084 16.0345 41.0891 15.5904 41.0672C13.5988 40.9737 12.2399 40.6592 11.0457 40.1969C9.79658 39.7277 8.66517 38.9911 7.73074 38.0387C6.77808 37.1033 6.04093 35.9714 5.57069 34.7219C5.10835 33.5295 4.79389 32.1706 4.7003 30.1771C4.67945 29.733 4.66073 29.2887 4.64415 28.8444L4.63479 28.4813C4.6003 27.1164 4.5847 25.7511 4.58799 24.3858V20.5374C4.58277 19.1721 4.5965 17.8068 4.62917 16.4419L4.64228 16.0788C4.65725 15.6576 4.67597 15.244 4.69843 14.7461C4.79202 12.7526 5.10648 11.3955 5.56881 10.2013C6.03885 8.95081 6.77747 7.81859 7.73261 6.88452C8.66681 5.93267 9.79747 5.19614 11.0457 4.72634C12.2399 4.26401 13.5969 3.94955 15.5904 3.85596C16.0883 3.8335 16.5038 3.81478 16.9231 3.79981L17.2863 3.78858C18.6511 3.75532 20.0164 3.74097 21.3817 3.74552L25.2301 3.74365ZM23.3059 13.1026C20.8238 13.1026 18.4433 14.0887 16.6881 15.8438C14.933 17.599 13.947 19.9794 13.947 22.4616C13.947 24.9438 14.933 27.3242 16.6881 29.0794C18.4433 30.8345 20.8238 31.8206 23.3059 31.8206C25.7881 31.8206 28.1686 30.8345 29.9237 29.0794C31.6789 27.3242 32.6649 24.9438 32.6649 22.4616C32.6649 19.9794 31.6789 17.599 29.9237 15.8438C28.1686 14.0887 25.7881 13.1026 23.3059 13.1026ZM23.3059 16.8462C24.0434 16.8461 24.7736 16.9912 25.4549 17.2733C26.1363 17.5554 26.7554 17.9689 27.2769 18.4903C27.7984 19.0116 28.2121 19.6306 28.4945 20.3118C28.7768 20.9931 28.9221 21.7232 28.9223 22.4607C28.9224 23.1981 28.7773 23.9283 28.4952 24.6097C28.2131 25.291 27.7996 25.9101 27.2782 26.4316C26.7569 26.9531 26.1379 27.3669 25.4567 27.6492C24.7754 27.9315 24.0452 28.0769 23.3078 28.077C21.8185 28.077 20.3902 27.4854 19.3371 26.4323C18.284 25.3792 17.6924 23.9509 17.6924 22.4616C17.6924 20.9723 18.284 19.544 19.3371 18.4909C20.3902 17.4378 21.8185 16.8462 23.3078 16.8462M33.1347 10.2949C32.5142 10.2949 31.9191 10.5414 31.4803 10.9802C31.0415 11.419 30.795 12.0141 30.795 12.6347C30.795 13.2552 31.0415 13.8503 31.4803 14.2891C31.9191 14.7279 32.5142 14.9744 33.1347 14.9744C33.7553 14.9744 34.3504 14.7279 34.7892 14.2891C35.228 13.8503 35.4745 13.2552 35.4745 12.6347C35.4745 12.0141 35.228 11.419 34.7892 10.9802C34.3504 10.5414 33.7553 10.2949 33.1347 10.2949Z" fill="white"/>
</svg>
