<svg width="23" height="24" viewBox="0 0 23 24" fill="none" xmlns="http://www.w3.org/2000/svg">
<path fill-rule="evenodd" clip-rule="evenodd" d="M11.5 0.5C5.14886 0.5 0 5.64886 0 12C0 18.3511 5.14886 23.5 11.5 23.5C17.8511 23.5 23 18.3511 23 12C23 5.64886 17.8511 0.5 11.5 0.5ZM2.09091 12C2.09091 14.185 2.83632 16.1965 4.08564 17.7939C4.96301 16.6417 6.0949 15.708 7.39286 15.0656C8.69083 14.4232 10.1197 14.0897 11.568 14.0909C12.9974 14.0896 14.4084 14.4145 15.6932 15.041C16.9781 15.6675 18.1031 16.579 18.9823 17.7061C19.8881 16.518 20.4981 15.1314 20.7616 13.6608C21.0251 12.1902 20.9346 10.6781 20.4977 9.24939C20.0608 7.82073 19.2899 6.51664 18.2489 5.44504C17.2079 4.37344 15.9267 3.56513 14.5113 3.08699C13.0959 2.60885 11.587 2.47462 10.1094 2.69543C8.63182 2.91623 7.22805 3.4857 6.01426 4.35674C4.80046 5.22777 3.81153 6.37532 3.12928 7.70443C2.44704 9.03354 2.0911 10.506 2.09091 12ZM11.5 21.4091C9.34004 21.4123 7.24528 20.6693 5.57018 19.3056C6.24443 18.3404 7.14185 17.5523 8.18611 17.0084C9.23037 16.4646 10.3906 16.181 11.568 16.1818C12.7307 16.1809 13.8768 16.4574 14.9112 16.9883C15.9457 17.5192 16.8385 18.2893 17.5155 19.2345C15.8274 20.6425 13.6982 21.4122 11.5 21.4091Z" fill="#F2F2F2"/>
</svg>
