<svg width="23" height="16" viewBox="0 0 23 16" fill="none" xmlns="http://www.w3.org/2000/svg">
<path d="M22.0417 0.179993H3.51389C2.98461 0.179993 2.55556 0.617628 2.55556 1.15749V1.48333H0.958333C0.429054 1.48333 0 1.92096 0 2.46083V13.5392C0 14.7988 1.00114 15.82 2.23611 15.82H21.0833C22.1419 15.82 23 14.9447 23 13.865V1.15749C23 0.617628 22.5709 0.179993 22.0417 0.179993ZM2.23611 13.865C2.15139 13.865 2.07014 13.8307 2.01023 13.7696C1.95032 13.7085 1.91667 13.6256 1.91667 13.5392V3.43833H2.55556V13.5392C2.55556 13.6256 2.5219 13.7085 2.46199 13.7696C2.40209 13.8307 2.32083 13.865 2.23611 13.865ZM11.6597 13.2133H5.59028C5.32566 13.2133 5.11111 12.9945 5.11111 12.7246V12.3987C5.11111 12.1288 5.32566 11.91 5.59028 11.91H11.6597C11.9243 11.91 12.1389 12.1288 12.1389 12.3987V12.7246C12.1389 12.9945 11.9243 13.2133 11.6597 13.2133ZM19.9653 13.2133H13.8958C13.6312 13.2133 13.4167 12.9945 13.4167 12.7246V12.3987C13.4167 12.1288 13.6312 11.91 13.8958 11.91H19.9653C20.2299 11.91 20.4444 12.1288 20.4444 12.3987V12.7246C20.4444 12.9945 20.2299 13.2133 19.9653 13.2133ZM11.6597 9.30333H5.59028C5.32566 9.30333 5.11111 9.08449 5.11111 8.81458V8.48874C5.11111 8.21883 5.32566 7.99999 5.59028 7.99999H11.6597C11.9243 7.99999 12.1389 8.21883 12.1389 8.48874V8.81458C12.1389 9.08449 11.9243 9.30333 11.6597 9.30333ZM19.9653 9.30333H13.8958C13.6312 9.30333 13.4167 9.08449 13.4167 8.81458V8.48874C13.4167 8.21883 13.6312 7.99999 13.8958 7.99999H19.9653C20.2299 7.99999 20.4444 8.21883 20.4444 8.48874V8.81458C20.4444 9.08449 20.2299 9.30333 19.9653 9.30333ZM19.9653 5.39333H5.59028C5.32566 5.39333 5.11111 5.17449 5.11111 4.90458V3.27541C5.11111 3.0055 5.32566 2.78666 5.59028 2.78666H19.9653C20.2299 2.78666 20.4444 3.0055 20.4444 3.27541V4.90458C20.4444 5.17449 20.2299 5.39333 19.9653 5.39333Z" fill="#F1EAEA"/>
</svg>
