<svg width="21" height="22" viewBox="0 0 21 22" fill="none" xmlns="http://www.w3.org/2000/svg">
<path d="M21 10.9802C21.0107 16.7653 16.2928 21.4959 10.5076 21.5C8.009 21.5018 5.7139 20.6308 3.91032 19.1751C3.44133 18.7966 3.40627 18.0938 3.83245 17.6676L4.30948 17.1905C4.67398 16.826 5.25588 16.7862 5.65971 17.1065C6.98851 18.161 8.67016 18.7904 10.5 18.7904C14.806 18.7904 18.2903 15.3054 18.2903 11C18.2903 6.69395 14.8054 3.20968 10.5 3.20968C8.43327 3.20968 6.55619 4.01281 5.16244 5.32374L7.3113 7.47261C7.73807 7.89938 7.43581 8.62905 6.83232 8.62905H0.677419C0.303272 8.62905 0 8.32577 0 7.95163V1.79671C0 1.19321 0.729665 0.890956 1.15644 1.31769L3.24678 3.40804C5.13183 1.60657 7.68667 0.5 10.5 0.5C16.2923 0.5 20.9893 5.19029 21 10.9802ZM13.3404 14.3158L13.7563 13.781C14.1009 13.3381 14.021 12.6996 13.5781 12.3551L11.8548 11.0148V6.59679C11.8548 6.03558 11.3999 5.58065 10.8387 5.58065H10.1613C9.60008 5.58065 9.14515 6.03558 9.14515 6.59679V12.3401L11.9145 14.494C12.3575 14.8385 12.9959 14.7588 13.3404 14.3158Z" fill="#F1EAEA"/>
</svg>
