<svg width="25" height="20" viewBox="0 0 25 20" fill="none" xmlns="http://www.w3.org/2000/svg">
<path d="M24.654 10.8405L16.3203 19.1516C15.5762 19.8937 14.2864 19.3742 14.2864 18.3106V13.5614H7.54006C6.8803 13.5614 6.34952 13.032 6.34952 12.3741V7.62487C6.34952 6.96691 6.8803 6.43757 7.54006 6.43757H14.2864V1.68835C14.2864 0.629677 15.5712 0.105285 16.3203 0.847349L24.654 9.15847C25.1153 9.6235 25.1153 10.3755 24.654 10.8405ZM9.52428 18.9042V16.9254C9.52428 16.5989 9.25641 16.3318 8.92902 16.3318H4.76214C3.88412 16.3318 3.17476 15.6243 3.17476 14.7487V5.25026C3.17476 4.37463 3.88412 3.66719 4.76214 3.66719H8.92902C9.25641 3.66719 9.52428 3.40005 9.52428 3.07354V1.0947C9.52428 0.768195 9.25641 0.501052 8.92902 0.501052H4.76214C2.13304 0.501052 0 2.6283 0 5.25026V14.7487C0 17.3706 2.13304 19.4979 4.76214 19.4979H8.92902C9.25641 19.4979 9.52428 19.2308 9.52428 18.9042Z" fill="white"/>
</svg>
