<svg width="25" height="26" viewBox="0 0 25 26" fill="none" xmlns="http://www.w3.org/2000/svg">
<g clip-path="url(#clip0_198_1082)">
<path d="M13.4433 12.0623C14.1934 12.0623 14.9127 11.7643 15.4431 11.234C15.9734 10.7036 16.2714 9.98426 16.2714 9.23421C16.2714 8.48415 15.9734 7.76482 15.4431 7.23445C14.9127 6.70409 14.1934 6.40613 13.4433 6.40613C12.6933 6.40613 11.9739 6.70409 11.4436 7.23445C10.9132 7.76482 10.6152 8.48415 10.6152 9.23421C10.6152 9.98426 10.9132 10.7036 11.4436 11.234C11.9739 11.7643 12.6933 12.0623 13.4433 12.0623Z" stroke="#F1EAEA" stroke-width="2.26246" stroke-miterlimit="2"/>
<path d="M11.1807 14.8904L10.0495 18.8497M11.1807 14.8904L2.13086 11.4967M11.1807 14.8904L6.09017 9.79985L5.52455 4.70931M10.0495 18.8497L4.95894 17.1529L2.69647 23.3746M10.0495 18.8497L10.8922 22.5149C10.9529 22.7601 11.0939 22.978 11.2927 23.1339C11.4916 23.2897 11.7369 23.3744 11.9895 23.3746H17.9738M4.95894 0.75H7.78702C14.5744 0.75 23.0586 1.57014 23.0586 16.5872" stroke="#F1EAEA" stroke-width="2.26246" stroke-miterlimit="2" stroke-linecap="round" stroke-linejoin="round"/>
</g>
<defs>
<clipPath id="clip0_198_1082">
<rect width="24.5" height="24.5" fill="white" transform="translate(0 0.75)"/>
</clipPath>
</defs>
</svg>
