<svg width="45" height="45" viewBox="0 0 45 45" fill="none" xmlns="http://www.w3.org/2000/svg">
<circle cx="22.9618" cy="22.2685" r="18.2685" fill="white"/>
<path d="M28.0187 17.3835V25.6447C28.0184 27.182 27.5394 28.681 26.6482 29.9336C25.7571 31.1862 24.498 32.1303 23.0459 32.6347C21.5937 33.1391 20.0205 33.1789 18.5447 32.7484C17.069 32.3179 15.7638 31.4386 14.8106 30.2326C13.8573 29.0266 13.3033 27.5536 13.2253 26.0183C13.1474 24.483 13.5494 22.9616 14.3756 21.6652C15.2018 20.3688 16.4112 19.3618 17.8358 18.7841C19.2604 18.2064 20.8295 18.0866 22.3253 18.4414V22.043C21.5451 21.673 20.6658 21.5663 19.8197 21.7391C18.9737 21.9119 18.2066 22.3548 17.634 23.0012C17.0614 23.6476 16.7143 24.4625 16.6448 25.3232C16.5753 26.1839 16.7873 27.044 17.2488 27.7738C17.7103 28.5037 18.3963 29.0639 19.2037 29.3702C20.0111 29.6765 20.8962 29.7122 21.7256 29.4721C22.5551 29.2319 23.2841 28.7289 23.803 28.0386C24.3218 27.3483 24.6025 26.5082 24.6027 25.6447V10.2725H28.0187C28.0187 11.7825 28.6186 13.2306 29.6863 14.2983C30.754 15.366 32.2022 15.9659 33.7121 15.9659V19.3819C31.6419 19.385 29.6329 18.6799 28.0187 17.3835Z" fill="#171717"/>
</svg>
