<svg width="46" height="45" viewBox="0 0 46 45" fill="none" xmlns="http://www.w3.org/2000/svg">
<g clip-path="url(#clip0_113_178)">
<path fill-rule="evenodd" clip-rule="evenodd" d="M23.383 7.4873C24.9834 7.4873 26.6249 7.52848 28.216 7.59587L30.0952 7.68571L31.894 7.79241L33.5787 7.90659L35.1173 8.02638C36.787 8.15418 38.3582 8.86672 39.5544 10.0386C40.7506 11.2106 41.4953 12.7668 41.6573 14.4335L41.7322 15.229L41.8726 16.9324C42.0036 18.6975 42.1009 20.6217 42.1009 22.4617C42.1009 24.3016 42.0036 26.2258 41.8726 27.9909L41.7322 29.6943C41.7079 29.9676 41.6835 30.2315 41.6573 30.4898C41.4952 32.1568 40.7503 33.7133 39.5537 34.8853C38.3571 36.0572 36.7855 36.7696 35.1154 36.8969L33.5805 37.0149L31.8959 37.1309L30.0952 37.2376L28.216 37.3275C26.6059 37.3974 24.9946 37.4336 23.383 37.436C21.7714 37.4336 20.1601 37.3974 18.55 37.3275L16.6707 37.2376L14.8719 37.1309L13.1873 37.0149L11.6487 36.8969C9.97897 36.7691 8.40779 36.0566 7.21157 34.8847C6.01534 33.7128 5.2707 32.1566 5.10865 30.4898L5.03378 29.6943L4.8934 27.9909C4.75028 26.1512 4.67411 24.3069 4.66504 22.4617C4.66504 20.6217 4.76237 18.6975 4.8934 16.9324L5.03378 15.229C5.05812 14.9558 5.08245 14.6918 5.10865 14.4335C5.27064 12.7671 6.01501 11.2111 7.21085 10.0392C8.40669 8.86733 9.97743 8.1546 11.6468 8.02638L13.1836 7.90659L14.8682 7.79241L16.6689 7.68571L18.5481 7.59587C20.1588 7.52593 21.7708 7.48973 23.383 7.4873ZM19.6394 17.9226V27.0008C19.6394 27.8655 20.5753 28.4046 21.324 27.9741L29.1856 23.435C29.3566 23.3365 29.4987 23.1947 29.5975 23.0238C29.6963 22.853 29.7483 22.659 29.7483 22.4617C29.7483 22.2643 29.6963 22.0704 29.5975 21.8995C29.4987 21.7286 29.3566 21.5868 29.1856 21.4883L21.324 16.9511C21.1532 16.8525 20.9595 16.8006 20.7623 16.8006C20.5651 16.8007 20.3714 16.8526 20.2006 16.9513C20.0299 17.0499 19.8881 17.1918 19.7896 17.3626C19.6911 17.5335 19.6393 17.7272 19.6394 17.9244V17.9226Z" fill="white"/>
</g>
<defs>
<clipPath id="clip0_113_178">
<rect width="44.9231" height="44.9231" fill="white" transform="translate(0.922852)"/>
</clipPath>
</defs>
</svg>
